<svg version="1.1" viewBox="0 0 96 96" xmlns="http://www.w3.org/2000/svg" xmlns:xlink="http://www.w3.org/1999/xlink" id="Icons_Car" overflow="hidden"><circle cx="24" cy="62" r="8" stroke="none" stroke-width="1" stroke-linecap="butt" fill="#404040" fill-opacity="1"/><circle cx="72" cy="62" r="8" stroke="none" stroke-width="1" stroke-linecap="butt" fill="#404040" fill-opacity="1"/><path d=" M 39 42 L 39 30 L 52.7 30 C 53.8 30 54.8 30.4 55.5 31.2 L 66.3 42 L 39 42 Z M 35 42 L 9.7 42 L 20.5 31.2 C 21.3 30.4 22.3 30 23.3 30 L 35 30 L 35 42 Z M 82 42 L 73.7 42 C 72.6 42 71.6 41.6 70.9 40.8 L 58.3 28.3 C 56.8 26.8 54.8 26 52.6 26 L 23.3 26 C 21.2 26 19.1 26.8 17.6 28.3 L 5.2 40.8 C 4.4 41.6 4 42.6 4 43.7 L 4 54 C 4 58.4 7.6 62 12 62 L 13 62 C 13 55.9 17.9 51 24 51 C 30.1 51 35 55.9 35 62 L 61 62 C 61 55.9 65.9 51 72 51 C 78.1 51 83 55.9 83 62 L 88 62 C 90.2 62 92 60.2 92 58 L 92 52 C 92 46.5 87.5 42 82 42 Z" stroke="none" stroke-width="1" stroke-linecap="butt" fill="#404040" fill-opacity="1"/></svg>