<svg version="1.1" viewBox="0 0 96 96" xmlns="http://www.w3.org/2000/svg" xmlns:xlink="http://www.w3.org/1999/xlink" id="Icons_Medal" overflow="hidden"><g><path d=" M 48 53.4 C 41.5 53.4 36.2 58.7 36.2 65.2 C 36.2 71.7 41.5 77.1 48 77.1 C 54.5 77.1 59.8 71.8 59.8 65.3 C 59.8 58.8 54.5 53.4 48 53.4" stroke="none" stroke-width="1" stroke-linecap="butt" fill="#404040" fill-opacity="1"/><path d=" M 48 43.3 C 35.9 43.3 26 53.2 26 65.3 C 26 77.4 35.9 87.3 48 87.3 C 60.1 87.3 70 77.4 70 65.3 C 70 53.2 60.1 43.3 48 43.3 M 48 81.3 C 39.2 81.3 32 74.1 32 65.3 C 32 56.5 39.2 49.3 48 49.3 C 56.8 49.3 64 56.5 64 65.3 C 64 74.1 56.8 81.3 48 81.3" stroke="none" stroke-width="1" stroke-linecap="butt" fill="#404040" fill-opacity="1"/><path d=" M 53.4 39.8 C 57.4 40.7 61.1 42.4 64.3 44.9 L 76.6 17.1 L 71 8.7 L 67.4 8.7 L 59.6 25.8 L 53.4 39.8 Z" stroke="none" stroke-width="1" stroke-linecap="butt" fill="#404040" fill-opacity="1"/><path d=" M 42.6 39.8 L 36.4 25.8 L 28.6 8.7 L 25 8.7 L 19.5 17.1 L 31.8 44.9 C 34.9 42.5 38.6 40.7 42.6 39.8" stroke="none" stroke-width="1" stroke-linecap="butt" fill="#404040" fill-opacity="1"/><path d=" M 57.5 20.8 L 63 8.8 L 33 8.8 L 38.5 20.8 Z" stroke="none" stroke-width="1" stroke-linecap="butt" fill="#404040" fill-opacity="1"/></g></svg>